<svg width="1440" height="2529" viewBox="0 0 1440 2529" fill="none" xmlns="http://www.w3.org/2000/svg">
<g style="mix-blend-mode:screen" opacity="0.1">
<path fill-rule="evenodd" clip-rule="evenodd" d="M452.634 -443.216C437.216 -400.331 434.973 -323.102 458.454 -201.608C505.491 41.7567 480.688 233.912 379.56 340.046C278.229 446.391 101.385 465.332 -152.918 364.964L-151.082 360.313C102.614 460.442 276.771 440.673 375.94 336.596C475.311 232.308 500.509 42.329 453.545 -200.659C430.027 -322.341 432.034 -400.695 447.928 -444.907C455.891 -467.056 467.461 -480.957 481.382 -487.178C495.341 -493.417 511.103 -491.686 526.872 -483.764C558.282 -467.985 590.66 -427.255 612.174 -371.764C633.732 -316.163 644.542 -245.37 632.469 -168.981C608.454 -17.024 554.377 192.44 444.47 333.16C389.475 403.573 320.397 456.906 234.006 477.077C147.608 497.249 44.2556 484.168 -79.1188 422.443L-76.8816 417.971C45.7441 479.322 147.892 492.048 232.869 472.208C317.853 452.366 386.024 399.868 440.53 330.082C549.622 190.405 603.546 -17.997 627.53 -169.762C639.458 -245.234 628.768 -315.136 607.513 -369.957C586.215 -424.888 554.467 -464.306 524.628 -479.297C509.772 -486.759 495.627 -488.068 483.422 -482.613C471.179 -477.142 460.327 -464.616 452.634 -443.216Z" fill="#353535"/>
</g>
<path fill-rule="evenodd" clip-rule="evenodd" d="M1532.54 238.515C1630.64 150.183 1743.01 68.1323 1887.1 34.6221L1932.73 227.899C1837.82 249.972 1755.93 305.389 1666.91 385.544C1628.33 420.281 1590.38 457.782 1549.62 498.062C1543.22 504.392 1536.74 510.79 1530.18 517.257C1482.68 564.1 1431.68 613.682 1376.11 661.111C1264.28 756.55 1131.33 845.629 958.482 895.439C785.402 945.316 579.692 953.722 324.863 899.26C128.429 857.279 -20.5606 813.94 -131.94 770.536C-241.917 727.679 -321.73 682.303 -373.791 632.833C-427.187 582.095 -460.758 516.649 -446.852 443.93C-434.099 377.238 -386.368 333.524 -347.134 309.156L-241.041 477.435C-242.402 478.28 -243.609 479.079 -244.676 479.826C-242.462 482.446 -239.479 485.644 -235.484 489.44C-210.562 513.122 -158.3 547.001 -58.8482 585.757C39.202 623.966 176.995 664.597 366.962 705.197C595.133 753.961 766.672 744.005 902.718 704.8C1039 665.527 1147.04 594.805 1245.71 510.592C1295.39 468.194 1342.02 422.987 1389.22 376.436C1395.49 370.249 1401.8 364.019 1408.13 357.763C1448.62 317.733 1490.23 276.608 1532.54 238.515ZM-250.691 470.715C-250.636 470.719 -250.428 471.137 -250.231 471.956C-250.647 471.121 -250.745 470.711 -250.691 470.715ZM-252.149 486.413C-252.19 486.484 -252.214 486.518 -252.216 486.517C-252.217 486.517 -252.196 486.482 -252.149 486.413Z" fill="#404040" fill-opacity="0.2"/>
<path fill-rule="evenodd" clip-rule="evenodd" d="M1541.61 2237.05C1603.93 2353.06 1681.83 2467.93 1806.08 2547.72L1914.72 2381.05C1832.88 2328.49 1774.64 2248.91 1718.08 2143.64C1693.57 2098.02 1670.59 2050.01 1645.91 1998.44C1642.03 1990.34 1638.11 1982.15 1634.14 1973.87C1605.34 1913.86 1574.19 1850.11 1537.99 1786.85C1465.16 1659.56 1370.28 1531.18 1224.5 1426.42C1078.52 1321.51 887.727 1244.71 629.326 1210.64C430.14 1184.39 275.154 1175.29 155.552 1178.86C37.4549 1182.37 -53.1022 1198.36 -118.926 1227.5C-186.437 1257.38 -240.285 1307.75 -251.912 1380.86C-262.575 1447.91 -232.501 1505.05 -203.851 1541.13L-46.7789 1418.24C-47.773 1416.99 -48.6371 1415.83 -49.3877 1414.77C-46.4129 1413.05 -42.5176 1411.03 -37.4672 1408.8C-5.95652 1394.85 54.7571 1380.46 161.551 1377.28C266.84 1374.14 410.366 1382.03 602.995 1407.43C834.363 1437.93 992.461 1504.74 1107.2 1587.2C1222.15 1669.81 1299.82 1772.57 1364.08 1884.88C1396.43 1941.43 1424.96 1999.6 1453.57 2059.23C1457.37 2067.15 1461.19 2075.13 1465.02 2083.14C1489.54 2134.38 1514.73 2187.03 1541.61 2237.05ZM-58.1468 1421.33C-58.094 1421.35 -57.7564 1421.02 -57.2925 1420.32C-57.9677 1420.97 -58.1996 1421.32 -58.1468 1421.33ZM-54.1833 1406.07C-54.1988 1405.99 -54.2096 1405.95 -54.2111 1405.95C-54.2126 1405.95 -54.2048 1405.99 -54.1833 1406.07Z" fill="#404040" fill-opacity="0.2"/>
</svg>
